<svg xmlns="http://www.w3.org/2000/svg" width="36" height="35.996" viewBox="0 0 36 35.996">
  <path id="pluginIcon" d="M18.6.366a3.934,3.934,0,0,1,3.3,0l15.37,7.1a1.691,1.691,0,0,1,0,3.066l-15.37,7.1a3.934,3.934,0,0,1-3.3,0l-15.37-7.1a1.691,1.691,0,0,1,0-3.066L18.6.366ZM33.532,14.738l3.741,1.73a1.691,1.691,0,0,1,0,3.066l-15.37,7.1a3.934,3.934,0,0,1-3.3,0l-15.37-7.1a1.691,1.691,0,0,1,0-3.066l3.741-1.73,10.687,4.936a6.2,6.2,0,0,0,5.189,0l10.687-4.936ZM22.845,28.673l10.688-4.936,3.741,1.73a1.691,1.691,0,0,1,0,3.066l-15.37,7.1a3.934,3.934,0,0,1-3.3,0l-15.37-7.1a1.691,1.691,0,0,1,0-3.066l3.741-1.73,10.687,4.936a6.2,6.2,0,0,0,5.189,0Z" transform="translate(-2.25 -0.002)"/>
</svg>
